Coordinates
version=1
nRows=27
nColumns=33
inDegrees=yes

Units are S.I. units (second, meters, Newtons, ...)
Angles are in degrees.

endheader
time	ground_thorax_rot_x	ground_thorax_rot_y	ground_thorax_rot_z	ground_thorax_tx	ground_thorax_ty	ground_thorax_tz	clav_prot_r	clav_elev_r	scapula_abduction_r	scapula_elevation_r	scapula_upward_rot_r	scapula_winging_r	shoulder_elv_r	plane_of_elev_r	axial_rot_r	elbow_flexion_r	pro_sup_r	wrist_flex_r	wrist_dev_r	clav_prot_l	clav_elev_l	scapula_abduction_l	scapula_elevation_l	scapula_upward_rot_l	scapula_winging_l	shoulder_elv_l	plane_of_elev_l	axial_rot_l	elbow_flexion_l	pro_sup_l	wrist_flex_l	wrist_dev_l	
3.9200	4.909830	-12.920694	7.357066	-0.093876	1.046522	0.009747	-0.038423	-2.054113	-4.482517	7.725435	-7.150780	2.433751	41.736292	16.995400	22.645752	82.309306	42.195792	8.379755	13.840722	5.864027	-13.190515	-5.256495	-1.804651	-20.090055	-3.766692	54.104191	-3.104016	-7.137250	88.366053	30.695839	-20.329048	-24.653537	
3.9300	4.959287	-13.148006	7.381799	-0.094035	1.046419	0.009927	-0.189654	-2.090421	-4.702000	7.630307	-7.026146	2.473076	41.467080	16.801068	23.032131	81.828337	42.331468	8.520378	13.993748	5.914748	-13.236225	-5.345293	-1.758008	-20.081300	-3.748762	54.009559	-3.488382	-6.569690	87.706395	31.021768	-18.966103	-24.398449	
3.9400	4.993111	-13.355435	7.405693	-0.094230	1.046298	0.010090	-0.317072	-2.145828	-4.872639	7.516628	-6.901656	2.501189	41.200474	16.593031	23.369560	81.356537	42.447936	8.625317	14.159242	5.953537	-13.272190	-5.413380	-1.720597	-20.072971	-3.735192	53.939862	-3.824001	-6.045299	87.079118	31.502393	-17.628151	-23.927352	
3.9500	5.022318	-13.543271	7.429450	-0.094459	1.046160	0.010250	-0.440417	-2.212220	-5.025112	7.382189	-6.756394	2.521977	40.924996	16.384296	23.693049	80.883740	42.562292	8.722540	14.333135	5.992158	-13.312602	-5.482507	-1.674503	-20.055568	-3.722276	53.883275	-4.142916	-5.544143	86.498379	32.059014	-16.234572	-23.273603	
3.9600	5.044466	-13.711679	7.455018	-0.094725	1.046004	0.010398	-0.540487	-2.291920	-5.135525	7.240234	-6.622284	2.535377	40.669836	16.179210	23.975320	80.414414	42.667405	8.791288	14.505948	6.021025	-13.350878	-5.534679	-1.630133	-20.038220	-3.714969	53.843287	-4.424224	-5.094205	85.934300	32.652986	-14.929910	-22.453021	
3.9700	5.065339	-13.865165	7.484646	-0.095028	1.045833	0.010534	-0.612831	-2.383080	-5.201781	7.099482	-6.513686	2.543312	40.455980	15.993366	24.219923	79.944477	42.765285	8.836199	14.672627	6.037592	-13.387921	-5.564404	-1.589592	-20.027299	-3.715890	53.815116	-4.661798	-4.688594	85.357315	33.228863	-13.764531	-21.602952	
3.9800	5.082261	-14.008014	7.514943	-0.095353	1.045649	0.010659	-0.669984	-2.491232	-5.235775	6.942816	-6.405948	2.545348	40.253702	15.814319	24.440920	79.469615	42.862066	8.877380	14.853657	6.040800	-13.424951	-5.569762	-1.551966	-20.023545	-3.726248	53.804911	-4.865600	-4.299653	84.818683	33.878017	-12.520852	-20.656212	
3.9900	5.099733	-14.132755	7.541839	-0.095690	1.045460	0.010778	-0.722490	-2.609156	-5.257853	6.775739	-6.295983	2.545601	40.059062	15.650339	24.639888	78.984773	42.960971	8.926735	15.043371	6.035902	-13.471556	-5.560524	-1.505704	-20.021786	-3.745383	53.805998	-5.041448	-3.913559	84.300696	34.558105	-11.173822	-19.750975	
4.0000	5.116025	-14.238329	7.565427	-0.096040	1.045265	0.010888	-0.770873	-2.736230	-5.268097	6.597484	-6.180853	2.543696	39.865865	15.497370	24.815876	78.488044	43.060295	8.981960	15.241976	6.024762	-13.524073	-5.540283	-1.453743	-20.020661	-3.770756	53.816101	-5.187043	-3.532541	83.810853	35.273261	-9.698980	-18.860602	
4.0100	5.131579	-14.318114	7.585887	-0.096409	1.045067	0.010985	-0.806595	-2.866381	-5.261157	6.424559	-6.082690	2.541621	39.693957	15.366746	24.951361	77.976857	43.153145	9.024058	15.429032	6.010832	-13.581118	-5.515552	-1.396002	-20.016858	-3.799245	53.825994	-5.292576	-3.181317	83.302881	35.927855	-8.279149	-18.061302	
4.0200	5.139001	-14.379663	7.603383	-0.096789	1.044850	0.011067	-0.842034	-3.004611	-5.242419	6.232533	-5.960471	2.534026	39.498048	15.233169	25.072622	77.449442	43.240279	9.071319	15.631582	5.996514	-13.629475	-5.490955	-1.344979	-20.009579	-3.824570	53.837431	-5.362089	-2.830619	82.859963	36.650724	-6.602909	-17.143946	
4.0300	5.140597	-14.413869	7.618065	-0.097184	1.044626	0.011136	-0.868610	-3.143891	-5.209383	6.042115	-5.843225	2.524740	39.305385	15.109681	25.157805	76.906708	43.315194	9.103763	15.825297	5.983804	-13.675366	-5.470162	-1.293560	-19.996324	-3.847316	53.843461	-5.391302	-2.509014	82.419196	37.332291	-4.919849	-16.232799	
4.0400	5.135601	-14.422485	7.631852	-0.097592	1.044395	0.011191	-0.887265	-3.284931	-5.162242	5.850911	-5.727400	2.513302	39.112919	14.992610	25.214081	76.346623	43.377068	9.126185	16.016372	5.971497	-13.718885	-5.450891	-1.242218	-19.978402	-3.868602	53.845819	-5.384391	-2.213720	81.985374	37.989307	-3.211178	-15.319744	
4.0500	5.129119	-14.402788	7.646227	-0.098020	1.044174	0.011236	-0.894933	-3.426717	-5.103022	5.668626	-5.631392	2.503358	38.942177	14.893528	25.236795	75.765164	43.426488	9.128510	16.191696	5.960623	-13.772016	-5.434721	-1.178965	-19.954971	-3.891936	53.841853	-5.351772	-1.960874	81.509836	38.554802	-1.700058	-14.513888	
4.0600	5.114428	-14.364005	7.659221	-0.098448	1.043946	0.011267	-0.901425	-3.574380	-5.032275	5.471039	-5.514608	2.488506	38.752439	14.786718	25.249159	75.161576	43.457941	9.139782	16.390414	5.944651	-13.823163	-5.409910	-1.116982	-19.930621	-3.917961	53.839346	-5.290508	-1.718143	81.072294	39.177680	-0.050527	-13.656401	
4.0700	5.097595	-14.300637	7.671820	-0.098880	1.043733	0.011287	-0.902475	-3.724922	-4.953771	5.273785	-5.403925	2.474101	38.571491	14.686658	25.239521	74.535763	43.476020	9.142241	16.588636	5.926811	-13.886596	-5.381966	-1.041741	-19.903671	-3.949484	53.833707	-5.212429	-1.506522	80.612477	39.763191	1.456414	-12.883817	
4.0800	5.077536	-14.214243	7.684461	-0.099312	1.043531	0.011294	-0.897227	-3.877909	-4.866277	5.077391	-5.299619	2.459780	38.400091	14.593014	25.212795	73.887424	43.484230	9.136162	16.786512	5.907785	-13.959186	-5.352056	-0.956613	-19.874786	-3.985158	53.824202	-5.118046	-1.323772	80.133769	40.311619	2.827990	-12.191343	
4.0900	5.058488	-14.104450	7.699954	-0.099752	1.043353	0.011292	-0.883134	-4.033026	-4.773983	4.892269	-5.223191	2.450261	38.259973	14.519062	25.167592	73.216845	43.497173	9.108834	16.964033	5.892374	-14.048700	-5.328383	-0.853893	-19.843253	-4.024621	53.807582	-5.020734	-1.178270	79.601148	40.756684	3.887517	-11.657558	
4.1000	5.034121	-13.977618	7.715526	-0.100188	1.043179	0.011280	-0.863051	-4.191333	-4.673747	4.707782	-5.154279	2.441273	38.128624	14.452461	25.113480	72.527046	43.513642	9.074643	17.140433	5.878193	-14.140054	-5.306920	-0.748926	-19.810714	-4.064185	53.786467	-4.909930	-1.050629	79.064180	41.172343	4.858775	-11.173685	
4.1100	5.008172	-13.832914	7.732063	-0.100623	1.043021	0.011260	-0.834800	-4.351523	-4.569441	4.533945	-5.111480	2.436785	38.023763	14.404412	25.044379	71.821329	43.542608	9.023242	17.299417	5.868528	-14.240429	-5.293444	-0.634141	-19.775660	-4.104097	53.758803	-4.795573	-0.950095	78.488250	41.499632	5.577671	-10.815906	
4.1200	4.977456	-13.674259	7.746314	-0.101055	1.042864	0.011234	-0.797507	-4.512618	-4.455293	4.366549	-5.083772	2.433352	37.934105	14.369656	24.958906	71.101174	43.575812	8.964033	17.455928	5.860012	-14.338933	-5.282423	-0.519941	-19.737991	-4.142506	53.724873	-4.664255	-0.871649	77.886510	41.767528	6.125682	-10.551057	
4.1300	4.940943	-13.505467	7.757624	-0.101479	1.042700	0.011198	-0.751245	-4.673961	-4.328642	4.202778	-5.063742	2.428873	37.851815	14.343204	24.856537	70.369018	43.608188	8.903560	17.619067	5.850351	-14.429262	-5.270008	-0.412728	-19.698441	-4.178457	53.684412	-4.509414	-0.810564	77.268738	41.996403	6.562330	-10.353798	
4.1400	4.885589	-13.336596	7.757883	-0.101873	1.042494	0.011138	-0.694402	-4.833811	-4.171056	4.026093	-5.012133	2.411656	37.729357	14.298155	24.725229	69.628575	43.610444	8.873351	17.841451	5.826661	-14.477392	-5.234380	-0.346580	-19.660071	-4.207543	53.636825	-4.285613	-0.747756	76.687604	42.300595	7.191174	-10.106162	
4.1500	4.819073	-13.166594	7.754202	-0.102241	1.042258	0.011058	-0.629209	-4.992223	-3.989514	3.839783	-4.936190	2.384696	37.580311	14.234418	24.574584	68.884349	43.593244	8.865789	18.104909	5.793802	-14.498022	-5.183319	-0.308095	-19.624374	-4.232220	53.583158	-4.016260	-0.686556	76.136913	42.658539	7.956977	-9.826286	
4.1600	4.746572	-12.995381	7.749267	-0.102587	1.042005	0.010963	-0.557811	-5.150174	-3.790334	3.645911	-4.842418	2.350928	37.414822	14.154266	24.410803	68.139586	43.565384	8.874204	18.393302	5.755383	-14.503371	-5.122665	-0.285516	-19.591351	-4.254965	53.524301	-3.719250	-0.625933	75.609994	43.050431	8.811480	-9.528618	
4.1700	4.683151	-12.818164	7.750598	-0.102923	1.041768	0.010866	-0.486759	-5.310435	-3.594620	3.452869	-4.754916	2.320319	37.269743	14.073659	24.256641	67.396483	43.553202	8.874537	18.656713	5.723587	-14.528678	-5.072734	-0.244261	-19.559445	-4.281351	53.463619	-3.445572	-0.571517	75.086737	43.407486	9.590138	-9.258831	
4.1800	4.628274	-12.636934	7.754370	-0.103244	1.041551	0.010770	-0.417235	-5.473787	-3.405560	3.261343	-4.676818	2.294274	37.145774	13.996241	24.109601	66.658070	43.557483	8.865598	18.889238	5.698483	-14.574338	-5.033801	-0.183151	-19.526975	-4.311621	53.400345	-3.195619	-0.518557	74.564174	43.720584	10.277245	-9.019557	
